<svg width="103" height="27" viewBox="0 0 103 27" fill="none" xmlns="http://www.w3.org/2000/svg">
    <g clip-path="url(#clip0_431_1270)">
        <path d="M27.2378 16.6698C27.7002 16.657 28.1575 16.5719 28.5925 16.4177L28.6005 19.8513C27.8043 20.0942 26.9771 20.2258 26.1435 20.2421C25.0221 20.3103 23.912 19.9893 23.0077 19.3354C22.6289 19.0216 22.3293 18.6259 22.1324 18.1795C21.9355 17.7331 21.8467 17.248 21.8729 16.7623L21.8629 12.3869C21.9028 11.5626 21.6175 10.7549 21.0661 10.1317C20.7955 9.85014 20.466 9.62932 20.1002 9.48438C19.7344 9.33945 19.341 9.27384 18.947 9.29205C18.5951 9.28063 18.2452 9.34726 17.9232 9.48701C17.6013 9.62675 17.3157 9.836 17.0876 10.0991C16.592 10.7111 16.3425 11.4801 16.3864 12.2605L16.4037 19.82L12.1417 19.8291L12.1244 12.4077C12.165 11.5929 11.9023 10.7915 11.3854 10.1525C11.1464 9.87667 10.8467 9.65767 10.5088 9.51209C10.1709 9.36652 9.80375 9.29817 9.435 9.31223C9.05088 9.29563 8.66752 9.35904 8.31018 9.49826C7.95284 9.63748 7.62962 9.84938 7.36179 10.12C6.82453 10.7129 6.54747 11.4898 6.59081 12.282L6.60807 19.8415L2.37403 19.8507L2.35279 10.4633C2.35279 9.72502 1.95679 9.35588 1.16478 9.35588C0.77499 9.36268 0.38699 9.40985 0.0072956 9.49659L0 6.235C0.781767 5.92801 1.61499 5.76654 2.45704 5.75883C3.13969 5.69936 3.82533 5.83418 4.43188 6.14716C5.03842 6.46013 5.54014 6.93799 5.87693 7.52349C6.47247 6.92613 7.18972 6.45862 7.98188 6.15153C8.77403 5.84443 9.6233 5.70463 10.4743 5.74124C11.3528 5.70123 12.2289 5.86213 13.0332 6.21123C13.8375 6.56033 14.548 7.08807 15.1087 7.75278C15.6939 7.0815 16.4271 6.54971 17.2528 6.19769C18.0786 5.84567 18.9752 5.68266 19.8747 5.72104C20.7055 5.67596 21.5367 5.80282 22.3143 6.09336C23.0919 6.38391 23.7985 6.83166 24.3881 7.40752C24.9778 7.98338 25.4374 8.67447 25.7371 9.43592C26.0367 10.1974 26.1697 11.0121 26.1275 11.8273L26.1361 15.6211C26.1174 15.766 26.1334 15.9132 26.1827 16.051C26.2319 16.1888 26.3132 16.3136 26.4201 16.4153C26.5269 16.517 26.6564 16.593 26.7983 16.6371C26.9403 16.6813 27.0907 16.6925 27.2378 16.6698Z"
              fill="#AF63FF"/>
        <path d="M56.8231 5.73278C57.2023 5.73136 57.5807 5.76848 57.9521 5.84353V9.80341C57.5288 9.69149 57.0922 9.63562 56.6538 9.6373C56.1591 9.61389 55.6645 9.68757 55.1992 9.85401C54.7338 10.0204 54.307 10.2763 53.9438 10.6066C53.5982 10.9523 53.3294 11.3645 53.1545 11.8172C52.9797 12.27 52.9024 12.7534 52.9278 13.237V19.8278H48.6937V10.4398C48.6937 9.70157 48.2983 9.33243 47.5077 9.33243C47.118 9.33837 46.73 9.38466 46.3502 9.47054V6.2031C47.1313 5.89454 47.9652 5.73471 48.8073 5.73215C50.5387 5.73215 51.6866 6.36899 52.2511 7.6427C52.8215 7.01216 53.5275 6.51376 54.3182 6.18346C55.1089 5.85317 55.9644 5.69924 56.8231 5.73278Z"
              fill="#AF63FF"/>
        <path d="M63.558 3.9044C63.1141 4.32949 62.5183 4.56747 61.8979 4.56747C61.2775 4.56747 60.6817 4.32949 60.2377 3.9044C60.0203 3.6902 59.8493 3.43502 59.7352 3.15423C59.6211 2.87344 59.5661 2.57287 59.5737 2.27068C59.5653 1.97042 59.6199 1.6717 59.7342 1.39301C59.8484 1.11433 60.0198 0.861635 60.2377 0.650641C60.686 0.233805 61.2802 0.00146484 61.8979 0.00146484C62.5156 0.00146484 63.1097 0.233805 63.558 0.650641C63.776 0.861635 63.9474 1.11433 64.0616 1.39301C64.1759 1.6717 64.2305 1.97042 64.2221 2.27068C64.2297 2.57288 64.1747 2.87346 64.0606 3.15425C63.9465 3.43505 63.7755 3.69023 63.558 3.9044ZM64.9592 16.698C65.4216 16.6862 65.8791 16.6022 66.3145 16.4491V19.8827C65.5184 20.1257 64.6912 20.2573 63.8575 20.2735C62.7362 20.3397 61.6269 20.0169 60.7238 19.3615C60.3459 19.0468 60.0474 18.6506 59.8515 18.2039C59.6557 17.7572 59.5679 17.2721 59.5949 16.7865V5.84558H63.829V15.646C63.8299 16.3477 64.2062 16.6984 64.9592 16.698Z"
              fill="#AF63FF"/>
        <path d="M75.4029 26.9992C73.5302 27.0614 71.6861 26.5366 70.1382 25.501C69.453 25.0368 68.883 24.4276 68.4701 23.7183C68.0572 23.009 67.8121 22.2177 67.7529 21.403H71.9591C72.0148 21.7361 72.1417 22.0538 72.3315 22.3354C72.5212 22.6169 72.7695 22.8559 73.0601 23.0367C73.7472 23.4471 74.5426 23.6495 75.3464 23.6184C76.2442 23.6609 77.1224 23.3521 77.7882 22.7599C78.0971 22.4615 78.3385 22.1027 78.4966 21.7067C78.6547 21.3107 78.726 20.8865 78.7059 20.4617V18.856C77.5919 19.8126 76.1487 20.3175 74.6691 20.2683C73.6949 20.3059 72.7234 20.1459 71.8151 19.7984C70.9069 19.451 70.0815 18.9235 69.3905 18.2489C68.0808 16.8056 67.3572 14.9406 67.3572 13.0084C67.3572 11.0761 68.0808 9.21116 69.3905 7.76785C70.0791 7.08912 70.9038 6.5578 71.8124 6.20743C72.7209 5.85706 73.6936 5.69525 74.6691 5.73221C75.6548 5.74558 76.6164 6.03362 77.4416 6.56275C77.5733 6.64614 77.7255 6.69325 77.8822 6.69914C78.0389 6.70503 78.1943 6.66948 78.3322 6.59623C78.4701 6.52297 78.5853 6.4147 78.6659 6.28275C78.7465 6.1508 78.7895 6.00002 78.7903 5.8462H82.9686V20.4376C83.0038 21.3328 82.836 22.2244 82.4771 23.0481C82.1182 23.8718 81.5772 24.607 80.8934 25.2007C79.3569 26.4526 77.3979 27.0943 75.4029 26.9992ZM75.1486 16.9474C75.6326 16.963 76.1142 16.873 76.5585 16.6839C77.0028 16.4947 77.3988 16.2112 77.7178 15.8537C78.4022 15.0538 78.7549 14.0307 78.7059 12.9875C78.7531 11.9405 78.4008 10.9137 77.7178 10.1077C77.4009 9.74673 77.0057 9.45993 76.5611 9.26831C76.1166 9.0767 75.6339 8.98513 75.1486 9.0003C74.6526 8.98212 74.1587 9.072 73.7024 9.26348C73.2461 9.45496 72.8387 9.74327 72.5096 10.1077C71.8181 10.9098 71.4603 11.9381 71.5075 12.9875C71.4584 14.0331 71.8167 15.0578 72.5096 15.8537C72.8408 16.2146 73.2489 16.4997 73.7049 16.6887C74.161 16.8777 74.6538 16.966 75.1486 16.9474Z"
              fill="#AF63FF"/>
        <path d="M102.94 6.23378C102.006 5.93822 101.03 5.78445 100.048 5.77779C99.4417 5.76455 98.8385 5.86996 98.2739 6.08787C97.7772 6.26337 97.3356 6.56286 96.9929 6.95683C96.348 7.79355 96.0328 8.83053 96.1051 9.87707V13.0155C96.1035 13.3889 96.0562 13.7606 95.9643 14.1229C95.9437 14.2056 95.9324 14.2936 95.9071 14.3737C95.6856 15.1128 95.2172 15.7573 94.5772 16.2038C93.9372 16.6502 93.1627 16.8726 92.3783 16.8354C91.673 16.8514 90.9771 16.6734 90.3695 16.3214C90.1177 16.1717 89.8867 15.9906 89.6823 15.7827C89.3325 15.4108 89.0612 14.9747 88.8843 14.4993C88.7074 14.024 88.6284 13.519 88.6517 13.0136C88.6471 12.5275 88.7213 12.0438 88.8714 11.5805C89.0348 11.0765 89.312 10.6152 89.6823 10.2308C89.6976 10.2151 89.7148 10.2015 89.73 10.1858C90.0624 9.85049 90.4641 9.58886 90.9081 9.41849C91.3777 9.24439 91.8764 9.15821 92.3783 9.16444C92.911 9.15716 93.4398 9.2553 93.933 9.453C94.2084 9.56815 94.4668 9.71913 94.7013 9.90184V9.87512C94.6424 8.61124 94.9988 7.36222 95.7179 6.31195C94.6525 5.91197 93.519 5.71477 92.3783 5.7309C91.3245 5.71844 90.2765 5.88483 89.2805 6.22271C88.8387 6.37689 88.4134 6.57325 88.0108 6.80897C87.6862 6.9969 87.3778 7.2104 87.0885 7.44735C87.0128 7.51249 86.939 7.57372 86.864 7.63755C86.8248 7.67077 86.7843 7.7027 86.7465 7.73723C86.0863 8.35596 85.5633 9.10146 85.2098 9.92724C84.801 10.9057 84.5977 11.955 84.6122 13.0123C84.5573 14.6553 85.0835 16.2663 86.1016 17.5721C86.2986 17.8206 86.5132 18.0553 86.7438 18.2743C87.5199 18.9963 88.4542 19.5344 89.4751 19.8475C90.4136 20.1355 91.3923 20.2775 92.3757 20.2683C93.5812 20.2872 94.7783 20.0674 95.8952 19.6221C96.6782 19.3032 97.3951 18.8464 98.0103 18.2743C98.7229 17.5938 99.2811 16.7733 99.6484 15.8667C100.016 14.9601 100.184 13.9877 100.142 13.0129C100.142 13.0396 100.142 13.065 100.139 13.0917H100.145L100.151 10.4861C100.151 9.74787 100.547 9.37876 101.339 9.37876C101.893 9.38371 102.446 9.43075 102.993 9.51946L102.997 7.71117L103 6.25201L102.94 6.23378Z"
              fill="#AF63FF"/>
        <path d="M46.9871 19.7686C46.2232 20.0619 45.4113 20.2165 44.5911 20.2246C43.9845 20.2379 43.3813 20.1325 42.8167 19.9145C42.32 19.739 41.8785 19.4395 41.5358 19.0456C40.8908 18.2089 40.5755 17.1719 40.6479 16.1253V12.9869C40.6462 12.6135 40.599 12.2418 40.5071 11.8795C40.4866 11.7967 40.4753 11.7088 40.45 11.6287C40.2285 10.8896 39.76 10.2451 39.12 9.79865C38.48 9.3522 37.7056 9.12974 36.9212 9.16703C36.2158 9.15087 35.5199 9.32892 34.9124 9.68099C34.6605 9.83062 34.4295 10.0117 34.2251 10.2197C33.8753 10.5915 33.604 11.0277 33.4271 11.503C33.2502 11.9783 33.1712 12.4833 33.1945 12.9888C33.1899 13.4749 33.2641 13.9586 33.4143 14.4219C33.5777 14.9259 33.8548 15.3872 34.2251 15.7716C34.2404 15.7872 34.2577 15.8009 34.2729 15.8166C34.6052 16.152 35.0069 16.4136 35.451 16.5839C35.9203 16.758 36.4188 16.8441 36.9205 16.8379C37.453 16.8451 37.9815 16.747 38.4744 16.5494C38.7499 16.4343 39.0084 16.2833 39.2428 16.1006V16.1273C39.184 17.3911 39.5403 18.6402 40.2595 19.6904C39.194 20.0905 38.0606 20.2877 36.9199 20.2715C35.8661 20.2839 34.818 20.1175 33.822 19.7797C33.3802 19.6256 32.955 19.4292 32.5523 19.1934C32.2276 19.0055 31.9189 18.792 31.6293 18.5551C31.5543 18.4899 31.4799 18.4287 31.4055 18.3648C31.3663 18.3316 31.3258 18.2997 31.288 18.2652C30.6279 17.6464 30.1048 16.9009 29.7513 16.0752C29.3425 15.0968 29.1392 14.0474 29.1537 12.9901C29.0987 11.3471 29.625 9.73601 30.6432 8.4303C30.8401 8.18191 31.0547 7.94747 31.2853 7.72874C32.0614 7.0067 32.9957 6.46856 34.0166 6.1556C34.9551 5.86751 35.9339 5.72552 36.9172 5.7348C38.1227 5.71563 39.3198 5.93519 40.4367 6.38034C41.2195 6.69912 41.9362 7.15591 42.5511 7.72809C43.2638 8.40863 43.822 9.22901 44.1893 10.1356C44.5566 11.0423 44.7247 12.0147 44.6827 12.9895C44.6827 12.9628 44.6827 12.9374 44.6827 12.9106H44.6887L44.6947 15.5163C44.6947 16.2545 45.091 16.6237 45.8834 16.6237C46.273 16.6168 46.6607 16.5697 47.0402 16.4829L47.0442 18.2912L47.0475 19.7504L46.9871 19.7686Z"
              fill="#AF63FF"/>
        <path d="M102.53 19.8384C102.278 20.0933 101.943 20.2544 101.584 20.294C101.224 20.3336 100.862 20.2494 100.558 20.0557C100.255 19.862 100.03 19.571 99.921 19.2323C99.8123 18.8937 99.8271 18.5285 99.9626 18.1993C100.098 17.8701 100.346 17.5974 100.664 17.4278C100.982 17.2583 101.35 17.2024 101.706 17.2698C102.061 17.3371 102.382 17.5236 102.612 17.7972C102.843 18.0707 102.969 18.4145 102.97 18.7695C102.975 18.9677 102.939 19.1649 102.863 19.3488C102.787 19.5327 102.674 19.6993 102.53 19.8384ZM100.657 19.5597C100.76 19.6625 100.882 19.7442 101.017 19.8C101.152 19.8557 101.297 19.8845 101.443 19.8845C101.59 19.8845 101.735 19.8557 101.87 19.8C102.005 19.7442 102.127 19.6625 102.23 19.5597C102.335 19.456 102.418 19.3327 102.473 19.1969C102.529 19.0611 102.556 18.9158 102.553 18.7695C102.556 18.6245 102.529 18.4804 102.473 18.346C102.418 18.2116 102.335 18.0897 102.23 17.9878C102.021 17.7837 101.738 17.6691 101.443 17.6691C101.149 17.6691 100.866 17.7837 100.657 17.9878C100.552 18.0897 100.469 18.2116 100.414 18.346C100.358 18.4804 100.331 18.6245 100.334 18.7695C100.331 18.9158 100.358 19.0611 100.413 19.1969C100.469 19.3327 100.552 19.456 100.657 19.5597ZM100.951 19.3701V18.1018H101.512C101.647 18.0961 101.78 18.1411 101.883 18.2275C101.93 18.2695 101.968 18.3212 101.993 18.3789C102.017 18.4367 102.029 18.4991 102.026 18.5617C102.033 18.6418 102.012 18.7217 101.969 18.79C101.926 18.8582 101.862 18.9113 101.786 18.9415L102.078 19.3701H101.694L101.455 19.0027H101.277V19.3701H100.951ZM101.277 18.7271H101.506C101.632 18.7271 101.695 18.67 101.695 18.5558C101.696 18.5332 101.691 18.5108 101.682 18.4901C101.672 18.4695 101.658 18.4512 101.641 18.4366C101.603 18.4061 101.556 18.3899 101.508 18.391H101.279L101.277 18.7271Z"
              fill="#AF63FF"/>
    </g>
    <defs>
        <clipPath id="clip0_431_1270">
            <rect width="103" height="27" fill="white"/>
        </clipPath>
    </defs>
</svg>